<svg
  xmlns="http://www.w3.org/2000/svg"
  width="100%"
  height="100%"
  viewBox="0 0 717.06 358.81"
>
  <g>
    <g>
      <g>
        <path
          d="M576.7,86.21c3.16-6.32,11.54-11.49,18.62-11.49h10.57c7.07,0,10.79,5.4,8.26,12.01l-35.79,93.51c-2.52,6.6-10.38,12.01-17.45,12.01h-24.55c-7.07,0-10.26-5.17-7.1-11.49l47.43-94.54Z"
          fill="#f9a936"
        />
        <path
          d="M535.81,180.76l47.43-94.54c3.17-6.32,11.54-11.49,18.62-11.49h-6.53c-7.08,0-15.45,5.17-18.62,11.49l-47.43,94.54c-3.16,6.32,.02,11.49,7.1,11.49h6.54c-7.07,0-10.26-5.17-7.1-11.49Z"
          fill="#facf65"
        />
      </g>
      <g>
        <path
          d="M621.58,50.35c0,2.19-1.78,3.97-3.97,3.97H17.33c-2.19,0-3.97-1.77-3.97-3.97h0c0-2.19,1.78-3.97,3.97-3.97H617.61c2.19,0,3.97,1.78,3.97,3.97h0Z"
          fill="#3b233c"
        />
        <path
          d="M324.55,95.84c0,3.05-2.48,5.53-5.53,5.53h0c-3.05,0-5.53-2.48-5.53-5.53V40.85c0-3.05,2.47-5.53,5.53-5.53h0c3.05,0,5.53,2.48,5.53,5.53v54.98Z"
          fill="#3b233c"
        />
        <polygon
          points="298.76 41.28 335.89 41.28 319.03 27.39 298.76 41.28"
          fill="#3b233c"
        />
        <path
          d="M296.97,78.41c0,.78-.63,1.42-1.42,1.42h0c-.79,0-1.42-.64-1.42-1.42v-26.64c0-.78,.63-1.42,1.42-1.42h0c.78,0,1.42,.63,1.42,1.42v26.64Z"
          fill="#3b233c"
        />
        <path
          d="M344.01,78.41c0,.78-.63,1.42-1.42,1.42h0c-.78,0-1.41-.64-1.41-1.42v-26.64c0-.78,.63-1.42,1.41-1.42h0c.78,0,1.42,.63,1.42,1.42v26.64Z"
          fill="#3b233c"
        />
      </g>
      <g>
        <path
          d="M406.37,140.85c0-30.26-24.53-54.79-54.8-54.79h-79.36c-30.26,0-54.79,24.53-54.79,54.79h0c0,30.26,24.53,54.79,54.79,54.79h79.36c30.26,0,54.8-24.53,54.8-54.79h0Z"
          fill="#facf65"
        />
        <path
          d="M249.25,140.85c0-30.26,24.53-54.79,54.79-54.79h-31.83c-30.26,0-54.79,24.53-54.79,54.79s24.53,54.79,54.79,54.79h31.83c-30.26,0-54.79-24.53-54.79-54.79Z"
          fill="#f9ab39"
        />
      </g>
      <path
        d="M358.85,103.07c0,2.19-1.78,3.97-3.97,3.97h-48.75c-2.19,0-3.97-1.78-3.97-3.97h0c0-2.19,1.78-3.97,3.97-3.97h48.75c2.19,0,3.97,1.77,3.97,3.97h0Z"
        fill="#49334d"
      />
      <path
        d="M344.01,78.03c0,.99-.8,1.79-1.79,1.79h-46.3c-.99,0-1.79-.8-1.79-1.79h0c0-.99,.8-1.79,1.79-1.79h46.3c.99,0,1.79,.8,1.79,1.79h0Z"
        fill="#3b233c"
      />
      <path
        d="M131.26,143.88L62.11,255.54s-29.57,34.48,5.81,35.14H339.1s35.04-3.69,54.03-32.88c18.99-29.19,43.08-72.27,43.08-72.27l208.98-28.06,15.5-42.7H207.22s-52.43-4.91-75.96,29.1Z"
        fill="#facf65"
      />
      <g>
        <path
          d="M18.53,274.82c.98,22.98,17.93,39.93,40.91,40.91,5.45,.23,10.95,0,16.4,0h202.92c21.53,0,48.61,4.07,63.09-16.02,5.46-7.57,8.07-15.59,8.47-24.89,.16-3.79-5.71-3.77-5.87,0-.9,21.25-17.17,35.04-37.85,35.04H62.83c-20.84,0-37.5-13.36-38.43-35.04-.16-3.77-6.03-3.79-5.87,0h0Z"
          fill="#231f20"
        />
        <path
          d="M227.78,312.79c.52-19.49,15.55-34.52,35.04-35.04,3.78-.1,3.79-5.97,0-5.87-22.72,.61-40.3,18.19-40.91,40.91-.1,3.79,5.77,3.78,5.87,0h0Z"
          fill="#231f20"
        />
        <path
          d="M104.91,312.79c.53-19.49,15.55-34.52,35.04-35.04,3.78-.1,3.79-5.97,0-5.87-22.72,.61-40.3,18.19-40.91,40.91-.1,3.79,5.77,3.78,5.87,0h0Z"
          fill="#231f20"
        />
      </g>
      <path
        d="M433.84,114.78c2.12,8.45,9.71,14.74,18.81,14.74h63.11c9.11,0,16.7-6.29,18.82-14.74h-100.74Z"
        fill="#3b233c"
      />
      <g>
        <path
          d="M663.59,86.21c3.17-6.32,11.55-11.49,18.62-11.49h10.56c7.08,0,10.79,5.4,8.27,12.01l-35.79,93.51c-2.53,6.6-10.38,12.01-17.45,12.01h-24.55c-7.07,0-10.26-5.17-7.09-11.49l47.43-94.54Z"
          fill="#f9a936"
        />
        <path
          d="M622.7,180.76l47.43-94.54c3.17-6.32,11.55-11.49,18.62-11.49h-6.54c-7.07,0-15.45,5.17-18.62,11.49l-47.43,94.54c-3.17,6.32,.02,11.49,7.09,11.49h6.54c-7.07,0-10.26-5.17-7.09-11.49Z"
          fill="#facf65"
        />
      </g>
      <path
        d="M402.08,161.76c0,11.23-9.11,20.34-20.34,20.34s-20.34-9.11-20.34-20.34,9.11-20.34,20.34-20.34,20.34,9.11,20.34,20.34Z"
        fill="#fff"
      />
      <path
        d="M498.31,151.78c0,2.27-1.84,4.11-4.11,4.11h-49.29c-2.27,0-4.11-1.84-4.11-4.11h0c0-2.27,1.84-4.11,4.11-4.11h49.29c2.27,0,4.11,1.84,4.11,4.11h0Z"
        fill="#f9ab39"
      />
      <path
        d="M367.27,245.86H68.1l-6,9.69s-29.57,34.48,5.81,35.14H339.1s35.04-3.69,54.03-32.88c5.4-8.3,11.2-17.71,16.75-26.94-18.46,13.8-42.62,14.99-42.62,14.99Z"
        fill="#f9ab39"
      />
      <path
        d="M383.84,269.12c-13.29,6.42-26.44,5.7-26.44,5.7,0,0-248.89,.38-277.06,0-13.24-.18-17.66-9.25-18.63-18.81-3.32,4.05-26.79,34.06,6.2,34.68H339.1s25.46-2.69,44.74-21.57Z"
        fill="#c57e38"
      />
      <path
        d="M432.43,192.25H197.94c-7.46,0-13.5,6.05-13.5,13.51s6.05,13.51,13.5,13.51h218.86c6.49-11.01,12.12-20.84,15.63-27.01Z"
        fill="#d84158"
      />
      <g>
        <path
          d="M236.46,138.21h-100.69c-1.59,1.76-3.1,3.64-4.5,5.67l-54.41,87.86h104.48c7.07,0,15.79-4.98,19.38-11.07l42.08-71.38c3.59-6.09,.74-11.07-6.33-11.07Z"
          fill="#4b354d"
        />
        <path
          d="M236.46,138.21h-21.74l-34.65,58.78c-3.59,6.09-12.31,11.07-19.38,11.07H91.51l-14.66,23.68h104.48c7.07,0,15.79-4.98,19.38-11.07l42.08-71.38c3.59-6.09,.74-11.07-6.33-11.07Z"
          fill="#4b354d"
          style="mix-blend-mode: multiply"
        />
        <polygon
          points="107.03 183 192.49 138.21 162.16 138.21 121.61 159.46 107.03 183"
          fill="#fff"
          style="mix-blend-mode: overlay"
        />
        <path
          d="M86.66,215.89l151.37-77.59c-.5-.06-1.02-.1-1.57-.1h-8.53L91.45,208.17l-4.79,7.73Z"
          fill="#fff"
          style="mix-blend-mode: overlay"
        />
        <polygon
          points="103.55 231.74 230.97 169.33 239.63 154.63 82.21 231.74 103.55 231.74"
          fill="#fff"
          style="mix-blend-mode: overlay"
        />
      </g>
      <g>
        <path
          d="M266.79,147.28c4.14-5.73,11.41-9.08,18.48-9.08h47.78c7.07,0,9.88,4.96,6.25,11.03l-25.34,42.35c-3.63,6.06-12.39,11.03-19.46,11.03h-50.62c-7.07,0-9.47-4.69-5.33-10.42l28.24-44.9Z"
          fill="#4b354d"
        />
        <path
          d="M333.05,138.21h-3.58l-24.31,40.62c-3.63,6.06-12.39,11.03-19.46,11.03h-45.69l-1.47,2.33c-4.14,5.73-1.74,10.42,5.33,10.42h50.62c7.07,0,15.83-4.96,19.46-11.03l25.34-42.35c3.63-6.06,.82-11.03-6.25-11.03Z"
          fill="#4b354d"
          style="mix-blend-mode: multiply"
        />
        <path
          d="M311.12,138.21h-25.85c-2.05,0-4.1,.31-6.1,.85l-9.21,4.83c-1.18,1.02-2.26,2.14-3.17,3.4l-13.29,21.12,57.62-30.2Z"
          fill="#fff"
          style="mix-blend-mode: overlay"
        />
        <path
          d="M340.17,141.42l-102.77,52.68c-1.04,2.11-1.13,4.01-.37,5.47l103.49-53.04c.59-1.96,.45-3.72-.34-5.1Z"
          fill="#fff"
          style="mix-blend-mode: overlay"
        />
        <polygon
          points="281.26 202.61 318.18 184.53 327.03 169.74 259.92 202.61 281.26 202.61"
          fill="#fff"
          style="mix-blend-mode: overlay"
        />
      </g>
      <g>
        <path
          d="M236.92,210.38c-3.66,0-8.29,2.51-10.29,5.57l-23.33,35.72c-2,3.06-.64,5.57,3.02,5.57h63.03c3.66,0,8.19-2.57,10.07-5.71l21.22-35.44c1.88-3.14,.42-5.71-3.24-5.71h-60.47Z"
          fill="#4b354d"
        />
        <path
          d="M297.39,210.38h-9.78l-17,28.4c-1.88,3.14-6.41,5.71-10.07,5.71h-52.55l-4.69,7.18c-2,3.06-.64,5.57,3.02,5.57h63.03c3.66,0,8.19-2.57,10.07-5.71l21.22-35.44c1.88-3.14,.42-5.71-3.24-5.71Z"
          fill="#4b354d"
          style="mix-blend-mode: multiply"
        />
        <polygon
          points="209.91 241.55 270.71 210.38 260.42 210.38 215.09 233.62 209.91 241.55"
          fill="#fff"
          style="mix-blend-mode: overlay"
        />
        <path
          d="M228.53,257.25l67.15-32.89,4.95-8.26c1.13-1.89,1.04-3.57,0-4.61l-93.43,45.76h21.34Z"
          fill="#fff"
          style="mix-blend-mode: overlay"
        />
      </g>
      <g>
        <path
          d="M472.96,274.82c-.9,21.25-17.17,35.04-37.85,35.04H191.33c-20.84,0-37.5-13.36-38.43-35.04-.16-3.77-6.03-3.79-5.87,0,.98,22.98,17.93,39.93,40.91,40.91,5.44,.23,10.95,0,16.4,0h202.92c21.53,0,48.61,4.07,63.09-16.02,5.45-7.57,8.08-15.59,8.47-24.89,.16-3.79-5.71-3.77-5.87,0h0Z"
          fill="#231f20"
        />
        <path
          d="M275.45,312.79c-.61-22.72-18.19-40.3-40.91-40.91-3.79-.11-3.78,5.77,0,5.87,19.49,.53,34.52,15.55,35.04,35.04,.1,3.78,5.97,3.79,5.87,0h0Z"
          fill="#231f20"
        />
        <path
          d="M398.32,312.79c-.61-22.72-18.19-40.3-40.91-40.91-3.79-.11-3.77,5.77,0,5.87,19.5,.53,34.52,15.55,35.05,35.04,.1,3.78,5.97,3.79,5.87,0h0Z"
          fill="#231f20"
        />
      </g>
    </g>
  </g>
</svg>
