<svg
  xmlns="http://www.w3.org/2000/svg"
  width="100%"
  height="100%"
  viewBox="0 0 809.06 279.52"
>
  <g>
    <path d="M266.01,212.99v26.35s79.77,13.72,126.7-26.35h-126.7Z" fill="#175495" />
    <path
      d="M142.21,137.57c0,3.23-2.62,5.85-5.85,5.85h-9.75c-3.23,0-5.85-2.62-5.85-5.85h0c0-3.23,2.62-5.85,5.85-5.85h9.75c3.23,0,5.85,2.62,5.85,5.85h0Z"
      fill="#fefefe"
    />
    <path
      d="M784.07,36.93h-31.28c-4.42,0-10.58,2.58-13.68,5.72l-89.73,90.93H97.38c-11.05,0-25.46,7.28-32.01,16.18l-43.84,59.54c-6.55,8.9-2.87,16.18,8.18,16.18H679.31c11.05,0,24.38-7.96,29.62-17.69l30.43-56.52c.91-1.69,1.52-3.33,1.84-4.89,.62-.78,1.15-1.59,1.53-2.41l46.01-99.75c1.85-4.01-.25-7.3-4.67-7.3Z"
      fill="#fefefe"
      stroke="#eaeaea"
      stroke-miterlimit="10"
    />
    <path
      d="M47.36,174.23l-25.83,35.08c-6.55,8.9-2.87,16.18,8.18,16.18H679.31c11.05,0,24.38-7.96,29.62-17.69l18.08-33.57H47.36Z"
      fill="#eae8ed"
    />
    <path
      d="M31.17,196.21l-9.65,13.1c-6.55,8.9-2.87,16.18,8.18,16.18H679.31c11.05,0,24.38-7.96,29.62-17.69l6.24-11.59H31.17Z"
      fill="#175495"
    />
    <path
      d="M20.49,210.85c-5.06,8.18-1.19,14.64,9.21,14.64H679.31c9.87,0,21.54-6.35,27.66-14.64H20.49Z"
      fill="#0f4885"
    />
    <path
      d="M99.99,158.97H58.59l-10.97,14.89h52.37c4.11,0,7.45-3.33,7.45-7.45s-3.33-7.45-7.45-7.45Z"
      fill="#341c37"
    />
    <g style="mix-blend-mode: multiply">
      <path
        d="M135.77,190.12h-3.49c-5.45,0-9.88-4.43-9.88-9.88v-15.11c0-5.45,4.43-9.88,9.88-9.88h3.49c5.45,0,9.88,4.43,9.88,9.88v15.11c0,5.45-4.43,9.88-9.88,9.88Zm-3.49-33.7c-4.81,0-8.71,3.91-8.71,8.71v15.11c0,4.81,3.91,8.71,8.71,8.71h3.49c4.8,0,8.71-3.91,8.71-8.71v-15.11c0-4.8-3.91-8.71-8.71-8.71h-3.49Z"
        fill="#eae8ed"
      />
    </g>
    <g style="mix-blend-mode: multiply">
      <path
        d="M324.52,190.12h-3.49c-5.45,0-9.88-4.43-9.88-9.88v-15.11c0-5.45,4.43-9.88,9.88-9.88h3.49c5.45,0,9.88,4.43,9.88,9.88v15.11c0,5.45-4.43,9.88-9.88,9.88Zm-3.49-33.7c-4.8,0-8.71,3.91-8.71,8.71v15.11c0,4.81,3.91,8.71,8.71,8.71h3.49c4.81,0,8.71-3.91,8.71-8.71v-15.11c0-4.8-3.91-8.71-8.71-8.71h-3.49Z"
        fill="#eae8ed"
      />
    </g>
    <g style="mix-blend-mode: multiply">
      <path
        d="M636.23,190.12h-3.49c-5.44,0-9.87-4.43-9.87-9.88v-15.11c0-5.45,4.43-9.88,9.87-9.88h3.49c5.44,0,9.87,4.43,9.87,9.88v15.11c0,5.45-4.43,9.88-9.87,9.88Zm-3.49-33.7c-4.8,0-8.71,3.91-8.71,8.71v15.11c0,4.81,3.91,8.71,8.71,8.71h3.49c4.8,0,8.71-3.91,8.71-8.71v-15.11c0-4.8-3.91-8.71-8.71-8.71h-3.49Z"
        fill="#eae8ed"
      />
    </g>
    <polygon
      points="195.13 188.64 170.54 188.64 165.45 193.96 189.81 193.96 195.13 188.64"
      fill="#0f4885"
    />
    <path
      d="M207.33,188.64h-9.41l-5.32,5.32h9.33c1.8-1.77,3.6-3.54,5.4-5.32Z"
      fill="#0f4885"
    />
    <path
      d="M216.22,188.64h-6.07c-1.79,1.78-3.59,3.55-5.4,5.32h6.15l5.32-5.32Z"
      fill="#175495"
    />
    <path
      d="M285.83,188.64c-1.77,1.77-3.54,3.54-5.32,5.32h8.59l4.43-5.32h-7.7Z"
      fill="#ffb861"
    />
    <path
      d="M283.04,188.64h-64.02l-5.32,5.32h64.02c1.77-1.77,3.54-3.54,5.32-5.32Z"
      fill="#ffb861"
    />
    <g>
      <polygon
        points="675.77 188.64 651.18 188.64 646.1 193.96 670.46 193.96 675.77 188.64"
        fill="#0f4885"
      />
      <path
        d="M687.98,188.64h-9.41l-5.32,5.32h9.33c1.8-1.77,3.6-3.54,5.4-5.32Z"
        fill="#0f4885"
      />
      <path
        d="M696.86,188.64h-6.07c-1.79,1.78-3.59,3.55-5.4,5.32h6.15l5.31-5.32Z"
        fill="#175495"
      />
    </g>
    <polygon
      points="195.13 151.42 170.54 151.42 165.45 156.74 189.81 156.74 195.13 151.42"
      fill="#0f4885"
    />
    <path
      d="M207.33,151.42h-9.41l-5.32,5.32h9.33c1.8-1.77,3.6-3.54,5.4-5.32Z"
      fill="#0f4885"
    />
    <path
      d="M216.22,151.42h-6.07c-1.79,1.78-3.59,3.55-5.4,5.32h6.15l5.32-5.32Z"
      fill="#175495"
    />
    <path
      d="M285.83,151.42c-1.77,1.77-3.54,3.54-5.32,5.32h8.59l4.43-5.32h-7.7Z"
      fill="#ffb861"
    />
    <path
      d="M283.04,151.42h-64.02l-5.32,5.32h64.02c1.77-1.77,3.54-3.54,5.32-5.32Z"
      fill="#ffb861"
    />
    <g>
      <path
        d="M177.33,178.33c0,1.63-1.32,2.95-2.95,2.95h0c-1.63,0-2.95-1.32-2.95-2.95v-8.21c0-1.63,1.32-2.95,2.95-2.95h0c1.63,0,2.95,1.32,2.95,2.95v8.21Z"
        fill="#0f4885"
      />
      <path
        d="M201.97,178.33c0,1.63-1.32,2.95-2.95,2.95h0c-1.63,0-2.95-1.32-2.95-2.95v-8.21c0-1.63,1.32-2.95,2.95-2.95h0c1.63,0,2.95,1.32,2.95,2.95v8.21Z"
        fill="#0f4885"
      />
      <path
        d="M226.6,178.33c0,1.63-1.32,2.95-2.95,2.95h0c-1.63,0-2.95-1.32-2.95-2.95v-8.21c0-1.63,1.32-2.95,2.95-2.95h0c1.63,0,2.95,1.32,2.95,2.95v8.21Z"
        fill="#0f4885"
      />
      <path
        d="M251.24,178.33c0,1.63-1.32,2.95-2.95,2.95h0c-1.63,0-2.95-1.32-2.95-2.95v-8.21c0-1.63,1.32-2.95,2.95-2.95h0c1.63,0,2.95,1.32,2.95,2.95v8.21Z"
        fill="#0f4885"
      />
      <path
        d="M275.87,178.33c0,1.63-1.32,2.95-2.95,2.95h0c-1.63,0-2.95-1.32-2.95-2.95v-8.21c0-1.63,1.32-2.95,2.95-2.95h0c1.63,0,2.95,1.32,2.95,2.95v8.21Z"
        fill="#0f4885"
      />
    </g>
    <g>
      <path
        d="M347.56,166.42c0,1.63-1.32,2.95-2.95,2.95h0c-1.63,0-2.95-1.32-2.95-2.95v-8.21c0-1.63,1.32-2.95,2.95-2.95h0c1.63,0,2.95,1.32,2.95,2.95v8.21Z"
        fill="#0f4885"
      />
      <path
        d="M372.19,166.42c0,1.63-1.32,2.95-2.95,2.95h0c-1.63,0-2.95-1.32-2.95-2.95v-8.21c0-1.63,1.32-2.95,2.95-2.95h0c1.63,0,2.95,1.32,2.95,2.95v8.21Z"
        fill="#0f4885"
      />
      <path
        d="M396.82,166.42c0,1.63-1.32,2.95-2.95,2.95h0c-1.63,0-2.95-1.32-2.95-2.95v-8.21c0-1.63,1.32-2.95,2.95-2.95h0c1.63,0,2.95,1.32,2.95,2.95v8.21Z"
        fill="#0f4885"
      />
      <path
        d="M421.46,166.42c0,1.63-1.32,2.95-2.95,2.95h0c-1.63,0-2.95-1.32-2.95-2.95v-8.21c0-1.63,1.32-2.95,2.95-2.95h0c1.63,0,2.95,1.32,2.95,2.95v8.21Z"
        fill="#0f4885"
      />
      <path
        d="M446.1,166.42c0,1.63-1.32,2.95-2.95,2.95h0c-1.63,0-2.95-1.32-2.95-2.95v-8.21c0-1.63,1.32-2.95,2.95-2.95h0c1.63,0,2.95,1.32,2.95,2.95v8.21Z"
        fill="#0f4885"
      />
      <path
        d="M474.1,166.42c0,1.63-1.32,2.95-2.95,2.95h0c-1.63,0-2.95-1.32-2.95-2.95v-8.21c0-1.63,1.32-2.95,2.95-2.95h0c1.63,0,2.95,1.32,2.95,2.95v8.21Z"
        fill="#0f4885"
      />
      <path
        d="M502.1,166.42c0,1.63-1.32,2.95-2.95,2.95h0c-1.63,0-2.95-1.32-2.95-2.95v-8.21c0-1.63,1.32-2.95,2.95-2.95h0c1.63,0,2.95,1.32,2.95,2.95v8.21Z"
        fill="#0f4885"
      />
      <path
        d="M530.1,166.42c0,1.63-1.32,2.95-2.95,2.95h0c-1.63,0-2.95-1.32-2.95-2.95v-8.21c0-1.63,1.32-2.95,2.95-2.95h0c1.63,0,2.95,1.32,2.95,2.95v8.21Z"
        fill="#0f4885"
      />
      <path
        d="M558.11,166.42c0,1.63-1.32,2.95-2.95,2.95h0c-1.63,0-2.95-1.32-2.95-2.95v-8.21c0-1.63,1.32-2.95,2.95-2.95h0c1.63,0,2.95,1.32,2.95,2.95v8.21Z"
        fill="#0f4885"
      />
      <path
        d="M586.11,166.42c0,1.63-1.32,2.95-2.95,2.95h0c-1.63,0-2.95-1.32-2.95-2.95v-8.21c0-1.63,1.32-2.95,2.95-2.95h0c1.63,0,2.95,1.32,2.95,2.95v8.21Z"
        fill="#0f4885"
      />
      <path
        d="M614.11,166.42c0,1.63-1.32,2.95-2.95,2.95h0c-1.63,0-2.95-1.32-2.95-2.95v-8.21c0-1.63,1.32-2.95,2.95-2.95h0c1.63,0,2.95,1.32,2.95,2.95v8.21Z"
        fill="#0f4885"
      />
    </g>
    <g>
      <path
        d="M359.77,213.43h-24.28v35.96h24.28c9.93,0,17.98-8.05,17.98-17.98s-8.05-17.98-17.98-17.98Z"
        fill="#0f4885"
      />
      <path
        d="M373.69,220.05c.57,1.75,.88,3.62,.88,5.55,0,9.93-8.05,17.98-17.98,17.98h-21.11v5.81h24.28c9.93,0,17.98-8.05,17.98-17.98,0-4.31-1.52-8.27-4.05-11.37Z"
        fill="#d74158"
        opacity=".5"
        style="mix-blend-mode: multiply"
      />
      <path
        d="M346.13,231.41c0,9.93-5,17.98-11.16,17.98s-11.16-8.05-11.16-17.98,4.99-17.98,11.16-17.98,11.16,8.05,11.16,17.98Z"
        fill="#eae8ed"
      />
      <path
        d="M339.37,230.75c0,8.05-3.16,14.57-7.05,14.57s-7.05-6.52-7.05-14.57,3.16-14.57,7.05-14.57,7.05,6.52,7.05,14.57Z"
        fill="#4b354d"
      />
      <path
        d="M327.28,230.68c0-7.25,2.57-13.24,5.92-14.36-.29-.08-.59-.13-.89-.13-3.89,0-7.05,6.52-7.05,14.57s3.16,14.57,7.05,14.57c.38,0,.76-.08,1.13-.21-3.48-.9-6.17-7.02-6.17-14.44Z"
        fill="#4b354d"
        style="mix-blend-mode: multiply"
      />
    </g>
    <g>
      <path
        d="M386.55,212.99s-1.59-5.09,4.08-9.37c5.67-4.28,40.96-17.68,40.96-17.68,0,0-34.23,13.1-40.84,18.24,0,0-3.96,2.31-4.2,8.8Z"
        fill="#eae8ed"
      />
      <path
        d="M422.12,212.99s-1.6-5.09,4.08-9.37c5.67-4.28,40.96-17.68,40.96-17.68,0,0-34.22,13.1-40.84,18.24,0,0-3.96,2.31-4.19,8.8Z"
        fill="#eae8ed"
      />
    </g>
    <path
      d="M734.16,102.04c0,6.85-5.55,12.41-12.41,12.41s-12.4-5.55-12.4-12.41,5.55-12.41,12.4-12.41,12.41,5.55,12.41,12.41Z"
      fill="#ffb861"
    />
    <g>
      <path
        d="M738.06,58.79h26.23c2.29,0,2.29-3.54,0-3.54h-26.23c-2.29,0-2.29,3.54,0,3.54h0Z"
        fill="#ffb861"
      />
      <path
        d="M731.32,72.97h24.46c2.29,0,2.29-3.54,0-3.54h-24.46c-2.29,0-2.29,3.54,0,3.54h0Z"
        fill="#ffb861"
      />
    </g>
    <path
      d="M583.16,142.92c0,.65-.53,1.18-1.18,1.18H312.34c-.65,0-1.18-.53-1.18-1.18h0c0-.65,.53-1.18,1.18-1.18h269.64c.65,0,1.18,.53,1.18,1.18h0Z"
      fill="#eae8ed"
    />
    <path
      d="M275.87,143.51c0,.33-.27,.59-.59,.59h-78.62c-.33,0-.59-.26-.59-.59h0c0-.33,.26-.59,.59-.59h78.62c.33,0,.59,.27,.59,.59h0Z"
      fill="#eae8ed"
    />
    <path
      d="M142.21,143.75c0,1.11-.9,2.01-2.01,2.01h-42.65c-1.11,0-2.01-.9-2.01-2.01h0c0-1.11,.9-2.01,2.01-2.01h42.65c1.11,0,2.01,.9,2.01,2.01h0Z"
      fill="#eae8ed"
    />
    <path
      d="M95.54,188.03c0,1.16-.94,2.09-2.09,2.09H60.53c-1.16,0-2.09-.94-2.09-2.09h0c0-1.16,.94-2.09,2.09-2.09h32.91c1.16,0,2.09,.94,2.09,2.09h0Z"
      fill="#cbc7d1"
    />
  </g>
</svg>
