<?xml version="1.0" encoding="UTF-8"?>
<svg id="Logo" xmlns="http://www.w3.org/2000/svg" width="100%" height="100%" preserveAspectRatio="xMidYMid" viewBox="0 0 900 235">
  <g id="AtomTrigger">
    <rect width="100%" height="100%" fill="#0c003f" />
    <g id="full-atom">
      <g id="dirs">
        <g>
          <path d="M244,180.57c-2.33,0-4.22-1.89-4.22-4.22v-28.51c0-2.33,1.89-4.22,4.22-4.22s4.22,1.89,4.22,4.22v28.51c0,2.33-1.89,4.22-4.22,4.22Z" fill="#827dea"/>
          <path d="M244,91.38c-2.33,0-4.22-1.89-4.22-4.22v-28.51c0-2.33,1.89-4.22,4.22-4.22s4.22,1.89,4.22,4.22v28.51c0,2.33-1.89,4.22-4.22,4.22Z" fill="#827dea"/>
          <path d="M305.89,121.72h-31.55c-2.33,0-4.22-1.89-4.22-4.22s1.89-4.22,4.22-4.22h31.55c2.33,0,4.22,1.89,4.22,4.22s-1.89,4.22-4.22,4.22Z" fill="#827dea"/>
          <path d="M213.66,121.72h-28.51c-2.33,0-4.22-1.89-4.22-4.22s1.89-4.22,4.22-4.22h28.51c2.33,0,4.22,1.89,4.22,4.22s-1.89,4.22-4.22,4.22Z" fill="#827dea"/>
        </g>
        <g>
          <path d="M265.46,100.27c-1.08,0-2.16-.41-2.99-1.24-1.65-1.65-1.65-4.32,0-5.97l13.88-13.88c1.65-1.65,4.32-1.65,5.97,0s1.65,4.32,0,5.97l-13.88,13.88c-.82,.82-1.91,1.24-2.99,1.24Z" fill="#827dea"/>
          <path d="M208.67,157.06c-1.08,0-2.16-.41-2.99-1.24-1.65-1.65-1.65-4.32,0-5.97l13.88-13.88c1.65-1.65,4.32-1.65,5.97,0,1.65,1.65,1.65,4.32,0,5.97l-13.88,13.88c-.82,.82-1.91,1.24-2.99,1.24Z" fill="#827dea"/>
          <path d="M279.34,157.06c-1.08,0-2.16-.41-2.99-1.24l-13.88-13.88c-1.65-1.65-1.65-4.32,0-5.97s4.32-1.65,5.97,0l13.88,13.88c1.65,1.65,1.65,4.32,0,5.97-.82,.82-1.91,1.24-2.99,1.24Z" fill="#827dea"/>
          <path d="M222.55,100.27c-1.08,0-2.16-.41-2.99-1.24l-13.88-13.88c-1.65-1.65-1.65-4.32,0-5.97s4.32-1.65,5.97,0l13.88,13.88c1.65,1.65,1.65,4.32,0,5.97-.82,.82-1.91,1.24-2.99,1.24Z" fill="#827dea"/>
        </g>
      </g>
      <g id="atom">
        <circle cx="244" cy="117.5" r="16.94" fill="#dcdef9"/>
      </g>
    </g>
    <g id="AtomTrigger-2" data-name="AtomTrigger">
      <g>
        <path d="M334.84,137.94c-.54-.57-.82-1.26-.82-2.09,0-.35,.11-.78,.33-1.31l16.66-39.32c.35-.78,.84-1.43,1.47-1.93,.63-.5,1.4-.75,2.32-.75h.65c.91,0,1.69,.25,2.32,.75,.63,.5,1.12,1.14,1.47,1.93l16.66,39.32c.22,.52,.33,.96,.33,1.31,0,.83-.27,1.52-.82,2.09-.55,.56-1.25,.85-2.12,.85-.61,0-1.17-.16-1.67-.49-.5-.33-.88-.77-1.14-1.34l-4.25-10.19h-22.21l-4.25,10.19c-.26,.57-.64,1.01-1.14,1.34-.5,.33-1.06,.49-1.67,.49-.87,0-1.58-.28-2.12-.85Zm11.46-16.59h17.64l-8.82-21.23-8.82,21.23Z" fill="#dcdef9"/>
        <path d="M385.1,130.49v-20.25h-4.64c-.35,0-.64-.12-.88-.36-.24-.24-.36-.53-.36-.88,0-.43,.2-.81,.59-1.11l8.88-8.69c.39-.39,.76-.59,1.11-.59s.64,.13,.88,.39c.24,.26,.36,.57,.36,.91v5.23h7.38c.74,0,1.35,.24,1.83,.72,.48,.48,.72,1.09,.72,1.83,0,.7-.24,1.3-.72,1.8-.48,.5-1.09,.75-1.83,.75h-7.38v19.73c0,1.7,.4,2.78,1.21,3.23,.81,.46,1.82,.69,3.04,.69,.87,0,1.74-.13,2.61-.39,.17-.04,.36-.09,.56-.13,.2-.04,.45-.07,.75-.07,.61,0,1.15,.23,1.63,.69,.48,.46,.72,1.01,.72,1.67,0,1-.5,1.76-1.5,2.29-1.7,.78-3.51,1.18-5.42,1.18-6.36,0-9.54-2.87-9.54-8.62Z" fill="#dcdef9"/>
        <path d="M413.51,136.96c-2.53-1.44-4.47-3.47-5.85-6.11-1.37-2.63-2.06-5.65-2.06-9.05s.69-6.41,2.06-9.05c1.37-2.63,3.32-4.67,5.85-6.11,2.53-1.44,5.46-2.16,8.82-2.16s6.23,.72,8.75,2.16c2.52,1.44,4.48,3.47,5.88,6.11,1.39,2.64,2.09,5.65,2.09,9.05s-.7,6.41-2.09,9.05c-1.39,2.64-3.35,4.67-5.88,6.11-2.53,1.44-5.44,2.16-8.75,2.16s-6.29-.72-8.82-2.16Zm13.95-4.51c1.63-.83,2.98-2.13,4.05-3.92,1.07-1.78,1.6-4.05,1.6-6.79s-.53-4.94-1.6-6.73c-1.07-1.78-2.42-3.08-4.05-3.89-1.63-.81-3.34-1.21-5.13-1.21s-3.56,.4-5.19,1.21c-1.63,.81-2.97,2.1-4.02,3.89-1.05,1.79-1.57,4.03-1.57,6.73s.52,5.01,1.57,6.79c1.05,1.79,2.38,3.09,4.02,3.92,1.63,.83,3.36,1.24,5.19,1.24s3.49-.41,5.13-1.24Z" fill="#dcdef9"/>
        <path d="M448.2,137.94c-.57-.57-.85-1.26-.85-2.09v-28.02c0-.83,.28-1.54,.85-2.12,.57-.59,1.26-.88,2.09-.88s1.53,.29,2.12,.88c.59,.59,.88,1.3,.88,2.12v2.68c1.22-1.74,2.69-3.18,4.41-4.31,1.72-1.13,3.95-1.7,6.7-1.7,2.44,0,4.53,.65,6.27,1.96,1.74,1.31,2.98,2.9,3.72,4.77,2.7-4.48,6.71-6.73,12.02-6.73,2.44,0,4.47,.61,6.11,1.83,1.63,1.22,2.84,2.79,3.63,4.7,.78,1.92,1.18,3.92,1.18,6.01v18.81c0,.83-.29,1.52-.88,2.09-.59,.56-1.3,.85-2.12,.85s-1.53-.28-2.09-.85c-.57-.57-.85-1.26-.85-2.09v-17.64c0-2.83-.5-4.91-1.5-6.24-1-1.33-2.72-1.99-5.16-1.99-2.22,0-4.06,.58-5.52,1.73-1.46,1.15-2.75,2.67-3.89,4.54v19.6c0,.83-.29,1.52-.88,2.09-.59,.56-1.3,.85-2.12,.85s-1.52-.28-2.09-.85c-.57-.57-.85-1.26-.85-2.09v-17.64c0-2.83-.5-4.91-1.5-6.24-1-1.33-2.72-1.99-5.16-1.99-2.22,0-4.06,.58-5.52,1.73-1.46,1.15-2.75,2.67-3.89,4.54v19.6c0,.83-.29,1.52-.88,2.09-.59,.56-1.3,.85-2.12,.85s-1.52-.28-2.09-.85Z" fill="#dcdef9"/>
      </g>
      <g>
        <path d="M515.74,137.94c-.57-.57-.85-1.26-.85-2.09v-37.43h-13.32c-.78,0-1.44-.26-1.96-.78-.52-.52-.78-1.18-.78-1.96s.26-1.45,.78-1.99c.52-.54,1.18-.82,1.96-.82h32.53c.78,0,1.45,.27,1.99,.82,.54,.55,.82,1.21,.82,1.99s-.27,1.44-.82,1.96c-.55,.52-1.21,.78-1.99,.78h-13.26v37.43c0,.83-.29,1.52-.88,2.09-.59,.56-1.3,.85-2.12,.85s-1.52-.28-2.09-.85Z" fill="#827dea"/>
        <path d="M539.84,137.94c-.57-.57-.85-1.26-.85-2.09v-28.02c0-.83,.28-1.54,.85-2.12,.57-.59,1.26-.88,2.09-.88s1.53,.29,2.12,.88c.59,.59,.88,1.3,.88,2.12v2.81c3.05-4.09,6.47-6.14,10.25-6.14h.33c.83,0,1.51,.28,2.06,.85,.54,.57,.82,1.26,.82,2.09s-.28,1.5-.85,2.02c-.57,.52-1.28,.78-2.16,.78h-.33c-2.09,0-4.01,.51-5.75,1.53-1.74,1.02-3.2,2.43-4.38,4.21v19.86c0,.83-.29,1.52-.88,2.09-.59,.56-1.3,.85-2.12,.85s-1.52-.28-2.09-.85Z" fill="#827dea"/>
        <path d="M564.46,97.37c-.65-.65-.98-1.44-.98-2.35v-.26c0-.91,.33-1.7,.98-2.35,.65-.65,1.44-.98,2.35-.98h.39c.91,0,1.7,.33,2.35,.98s.98,1.44,.98,2.35v.26c0,.91-.33,1.7-.98,2.35s-1.44,.98-2.35,.98h-.39c-.91,0-1.7-.33-2.35-.98Zm.39,40.56c-.57-.57-.85-1.26-.85-2.09v-28.02c0-.83,.28-1.54,.85-2.12,.57-.59,1.26-.88,2.09-.88,.87,0,1.59,.28,2.16,.85,.57,.57,.85,1.28,.85,2.16v28.02c0,.83-.29,1.52-.88,2.09-.59,.56-1.3,.85-2.12,.85s-1.52-.28-2.09-.85Z" fill="#827dea"/>
        <path d="M588.17,153.16c-2.57-.65-4.68-1.46-6.34-2.42-.78-.48-1.18-1.24-1.18-2.29,0-.7,.25-1.32,.75-1.86,.5-.54,1.12-.82,1.86-.82,.35,0,.74,.09,1.18,.26,3.31,1.65,6.9,2.48,10.78,2.48,6.66,0,9.99-3.55,9.99-10.65v-4.38c-3.09,3.31-6.82,4.96-11.17,4.96-2.57,0-5.06-.64-7.48-1.93-2.42-1.28-4.41-3.2-5.98-5.75-1.57-2.55-2.35-5.65-2.35-9.31s.78-6.76,2.35-9.31,3.56-4.46,5.98-5.75c2.42-1.28,4.91-1.93,7.48-1.93,4.35,0,8.08,1.66,11.17,4.96v-1.63c0-.83,.28-1.54,.85-2.12,.57-.59,1.26-.88,2.09-.88s1.53,.29,2.12,.88c.59,.59,.88,1.3,.88,2.12v29.2c0,5.49-1.33,9.71-3.98,12.67-2.66,2.96-6.45,4.44-11.37,4.44-2.53,0-5.07-.33-7.64-.98Zm12.54-21.43c1.57-.87,3.07-2.05,4.51-3.53v-13.46c-1.44-1.48-2.94-2.66-4.51-3.53-1.57-.87-3.38-1.31-5.42-1.31-3.27,0-5.93,.99-8,2.97-2.07,1.98-3.1,4.84-3.1,8.59s1.03,6.61,3.1,8.59c2.07,1.98,4.74,2.97,8,2.97,2.05,0,3.85-.44,5.42-1.31Z" fill="#827dea"/>
        <path d="M629.39,153.16c-2.57-.65-4.68-1.46-6.34-2.42-.78-.48-1.18-1.24-1.18-2.29,0-.7,.25-1.32,.75-1.86,.5-.54,1.12-.82,1.86-.82,.35,0,.74,.09,1.18,.26,3.31,1.65,6.9,2.48,10.78,2.48,6.66,0,9.99-3.55,9.99-10.65v-4.38c-3.09,3.31-6.82,4.96-11.17,4.96-2.57,0-5.06-.64-7.48-1.93-2.42-1.28-4.41-3.2-5.98-5.75-1.57-2.55-2.35-5.65-2.35-9.31s.78-6.76,2.35-9.31,3.56-4.46,5.98-5.75c2.42-1.28,4.91-1.93,7.48-1.93,4.35,0,8.08,1.66,11.17,4.96v-1.63c0-.83,.28-1.54,.85-2.12,.57-.59,1.26-.88,2.09-.88s1.53,.29,2.12,.88c.59,.59,.88,1.3,.88,2.12v29.2c0,5.49-1.33,9.71-3.98,12.67-2.66,2.96-6.45,4.44-11.37,4.44-2.53,0-5.07-.33-7.64-.98Zm12.54-21.43c1.57-.87,3.07-2.05,4.51-3.53v-13.46c-1.44-1.48-2.94-2.66-4.51-3.53-1.57-.87-3.38-1.31-5.42-1.31-3.27,0-5.93,.99-8,2.97-2.07,1.98-3.1,4.84-3.1,8.59s1.03,6.61,3.1,8.59c2.07,1.98,4.74,2.97,8,2.97,2.05,0,3.85-.44,5.42-1.31Z" fill="#827dea"/>
        <path d="M665.15,134.57c-2.98-3.03-4.47-7.28-4.47-12.77,0-3.09,.57-5.94,1.7-8.56,1.13-2.61,2.87-4.72,5.23-6.34,2.35-1.61,5.25-2.42,8.69-2.42,3.22,0,6.01,.75,8.36,2.25,2.35,1.5,4.14,3.51,5.36,6.01,1.22,2.51,1.83,5.24,1.83,8.2,0,.83-.27,1.52-.82,2.09-.54,.57-1.27,.85-2.19,.85h-22.14c.35,3.05,1.48,5.42,3.4,7.12,1.92,1.7,4.59,2.55,8.03,2.55,1.83,0,3.43-.17,4.8-.52s2.71-.85,4.02-1.5c.35-.17,.74-.26,1.18-.26,.7,0,1.31,.24,1.83,.72,.52,.48,.78,1.09,.78,1.83,0,.96-.57,1.76-1.7,2.42-1.7,.96-3.38,1.68-5.03,2.16-1.66,.48-3.79,.72-6.4,.72-5.31,0-9.46-1.51-12.44-4.54Zm20.8-15.51c-.13-2.13-.69-3.92-1.67-5.36-.98-1.44-2.19-2.49-3.63-3.17-1.44-.68-2.9-1.01-4.38-1.01s-2.94,.34-4.38,1.01-2.64,1.73-3.59,3.17c-.96,1.44-1.5,3.22-1.63,5.36h19.27Z" fill="#827dea"/>
        <path d="M700.52,137.94c-.57-.57-.85-1.26-.85-2.09v-28.02c0-.83,.28-1.54,.85-2.12,.57-.59,1.26-.88,2.09-.88s1.53,.29,2.12,.88c.59,.59,.88,1.3,.88,2.12v2.81c3.05-4.09,6.47-6.14,10.25-6.14h.33c.83,0,1.51,.28,2.06,.85,.54,.57,.82,1.26,.82,2.09s-.28,1.5-.85,2.02c-.57,.52-1.28,.78-2.16,.78h-.33c-2.09,0-4.01,.51-5.75,1.53-1.74,1.02-3.2,2.43-4.38,4.21v19.86c0,.83-.29,1.52-.88,2.09-.59,.56-1.3,.85-2.12,.85s-1.52-.28-2.09-.85Z" fill="#827dea"/>
      </g>
    </g>
  </g>
</svg>